<svg width="48" height="48" viewBox="0 0 48 48" fill="none" xmlns="http://www.w3.org/2000/svg">
<path fill-rule="evenodd" clip-rule="evenodd" d="M24 0C10.7452 0 0 10.7452 0 24C0 37.2548 10.7452 48 24 48C37.2548 48 48 37.2548 48 24C48 10.7452 37.2548 0 24 0Z" fill="#C7A17A"/>
<path d="M19.8387 32.7443C20.1656 33.0852 20.7098 33.0852 21.0482 32.7443C21.3752 32.415 21.3752 31.8668 21.0482 31.5382L14.9152 25.3599L35.1533 25.3599C35.625 25.3591 36 24.9814 36 24.5061C36 24.0309 35.625 23.6409 35.1533 23.6409H14.9152L21.0482 17.4741C21.3752 17.1332 21.3752 16.5843 21.0482 16.2557C20.7098 15.9148 20.1649 15.9148 19.8387 16.2557L12.2538 23.8965C11.9154 24.2259 11.9154 24.7741 12.2538 25.1027L19.8387 32.7443Z" fill="#F9FBFF"/>
</svg>
